<svg width="35" height="38" viewBox="0 0 35 38" fill="none" xmlns="http://www.w3.org/2000/svg">
<path d="M0.645669 24.5513H13.2607C13.5048 24.5523 13.7284 24.4149 13.8376 24.1967C14.346 23.1786 15.7756 20.3206 15.7756 20.3206C15.8768 20.1203 15.8669 19.8818 15.7492 19.6907C15.6316 19.4996 15.4232 19.3832 15.1987 19.3833H2.58361C2.33897 19.3834 2.11541 19.5217 2.00608 19.7405L0.0681356 23.6166C-0.0319009 23.8168 -0.0212168 24.0545 0.096456 24.2449C0.214056 24.4352 0.421813 24.5512 0.645669 24.5513Z" fill="white"/>
<path d="M3.07718 37.4713H16.6431V21.4738L14.8156 25.1327C14.5972 25.5703 14.149 25.8458 13.6599 25.8433H2.43115V36.8253C2.43115 37.1821 2.72036 37.4713 3.07718 37.4713Z" fill="white"/>
<path d="M32.147 36.8253V25.8433H20.9183C20.4283 25.8453 19.9798 25.5681 19.7626 25.1289L17.9351 21.4738V37.4713H31.501C31.8578 37.4713 32.147 37.1821 32.147 36.8253Z" fill="white"/>
<path d="M31.9946 19.3833H19.3795C19.1557 19.3835 18.9479 19.4994 18.8303 19.6898C18.7127 19.8802 18.702 20.1179 18.802 20.3181L20.74 24.1942C20.8493 24.413 21.0729 24.5513 21.3175 24.5514H33.9326C34.1564 24.5513 34.3642 24.4354 34.4818 24.2449C34.5994 24.0545 34.6102 23.8168 34.5101 23.6166L32.5721 19.7406C32.4627 19.5217 32.2392 19.3835 31.9946 19.3833Z" fill="white"/>
<path d="M12.07 14.7483C11.977 15.1809 12.1407 15.6284 12.4907 15.899C12.8407 16.1697 13.315 16.2153 13.7102 16.0164L16.7671 14.3446C17.0921 14.1656 17.4861 14.1656 17.811 14.3446L20.8678 16.0151C21.2631 16.214 21.7374 16.1683 22.0874 15.8977C22.4374 15.6271 22.601 15.1795 22.508 14.747L21.9325 11.2586C21.8665 10.8698 21.9899 10.473 22.2645 10.1901L24.6908 7.73073C25.0061 7.41313 25.1213 6.94785 24.9906 6.51983C24.8599 6.0918 24.5044 5.77025 24.0655 5.68294L20.6831 5.17135C20.3087 5.11141 19.9886 4.86926 19.8291 4.52532L18.3038 1.31017C18.1261 0.908561 17.7282 0.649506 17.289 0.649506C16.8498 0.649506 16.4519 0.908488 16.2741 1.31017L14.7489 4.52532C14.5894 4.86926 14.2693 5.11134 13.8949 5.17135L10.5125 5.68236C10.0736 5.76966 9.71812 6.09121 9.58742 6.51924C9.45672 6.94727 9.57191 7.41255 9.88717 7.73014L12.3148 10.1901C12.5895 10.473 12.7128 10.8698 12.6468 11.2586L12.07 14.7483Z" fill="white"/>
<path d="M2.52751 13.172C2.6648 13.3132 2.72641 13.5114 2.69356 13.7056L2.40545 15.4498C2.35927 15.666 2.44123 15.8896 2.61628 16.0248C2.79125 16.1599 3.02828 16.1828 3.22586 16.0835L4.75685 15.2489C4.91939 15.1597 5.11624 15.1597 5.27884 15.2489L6.80727 16.0842C7.00486 16.1835 7.24189 16.1607 7.41686 16.0255C7.59183 15.8903 7.67379 15.6668 7.62769 15.4505L7.33958 13.7064C7.30665 13.5122 7.36834 13.314 7.50563 13.1727L8.7188 11.9454C8.87665 11.7866 8.93439 11.5539 8.86904 11.3398C8.80369 11.1257 8.62579 10.9649 8.40617 10.9214L6.71492 10.663C6.52773 10.6331 6.36768 10.5121 6.28792 10.34L5.52561 8.73402C5.43691 8.53277 5.23772 8.40295 5.01789 8.40295C4.79798 8.40295 4.59886 8.53277 4.51017 8.73402L3.74529 10.3394C3.66553 10.5113 3.50548 10.6324 3.31829 10.6624L1.62704 10.9208C1.40742 10.9642 1.22952 11.125 1.16418 11.3391C1.09883 11.5533 1.15649 11.786 1.31441 11.9447L2.52751 13.172Z" fill="white"/>
<path d="M29.0555 8.73203L28.2931 10.3393C28.2134 10.5113 28.0533 10.6324 27.8661 10.6623L26.1749 10.9207C25.9553 10.9642 25.7774 11.1249 25.712 11.3391C25.6467 11.5532 25.7043 11.7859 25.8623 11.9446L27.0754 13.172C27.2127 13.3132 27.2743 13.5114 27.2415 13.7056L26.9534 15.4498C26.9072 15.666 26.9892 15.8896 27.1642 16.0247C27.3392 16.1599 27.5762 16.1827 27.7738 16.0835L29.3048 15.2489C29.4673 15.1597 29.6642 15.1597 29.8268 15.2489L31.3552 16.0842C31.5528 16.1835 31.7898 16.1606 31.9648 16.0255C32.1398 15.8903 32.2217 15.6668 32.1756 15.4505L31.8875 13.7063C31.8546 13.5122 31.9163 13.314 32.0536 13.1727L33.2667 11.9454C33.4246 11.7866 33.4823 11.5539 33.417 11.3398C33.3516 11.1257 33.1737 10.9649 32.9541 10.9214L31.2628 10.663C31.0757 10.6331 30.9156 10.5121 30.8358 10.34L30.0735 8.73408C29.9859 8.53116 29.7862 8.39951 29.5652 8.39914C29.3441 8.39863 29.1439 8.52947 29.0555 8.73203Z" fill="white"/>
<path d="M12.7673 2.58729C12.9918 2.58853 13.2008 2.47313 13.3193 2.28249C13.4379 2.09186 13.449 1.85337 13.3487 1.65256L12.7026 0.360578C12.5432 0.0412953 12.155 -0.0883058 11.8357 0.0711526C11.5164 0.230611 11.3868 0.618756 11.5463 0.938111L12.1923 2.2301C12.3012 2.4481 12.5236 2.58619 12.7673 2.58729Z" fill="white"/>
<path d="M10.6398 3.69004C10.8919 3.43779 10.8919 3.02886 10.6398 2.77661L9.99374 2.13059C9.74024 1.8858 9.33731 1.88924 9.08814 2.13849C8.83896 2.38767 8.83545 2.79059 9.08023 3.04409L9.72626 3.69012C9.97859 3.94222 10.3875 3.94222 10.6398 3.69004Z" fill="white"/>
<path d="M21.8112 2.58729C22.0572 2.58861 22.2826 2.45015 22.3926 2.23003L23.0386 0.938044C23.1981 0.616932 23.0671 0.227397 22.746 0.0678656C22.4248 -0.0915928 22.0353 0.0393987 21.8758 0.360511L21.2298 1.6525C21.1294 1.8533 21.1405 2.09179 21.2591 2.28243C21.3777 2.47313 21.5867 2.58854 21.8112 2.58729Z" fill="white"/>
<path d="M24.8519 3.69004L25.498 3.04401C25.6659 2.88185 25.7332 2.6416 25.6741 2.41576C25.615 2.18993 25.4386 2.0135 25.2127 1.95437C24.9869 1.89524 24.7467 1.96256 24.5845 2.13051L23.9384 2.77654C23.7705 2.93871 23.7032 3.17895 23.7623 3.40479C23.8214 3.63062 23.9978 3.80706 24.2237 3.86618C24.4496 3.92531 24.6898 3.85799 24.8519 3.69004Z" fill="white"/>
</svg>
