<svg width="25" height="24" viewBox="0 0 25 24" fill="none" xmlns="http://www.w3.org/2000/svg">
<path fill-rule="evenodd" clip-rule="evenodd" d="M5.41667 2C3.94391 2 2.75 3.19391 2.75 4.66667V8.66667C2.75 10.1394 3.94391 11.3333 5.41667 11.3333H9.41667C10.8894 11.3333 12.0833 10.1394 12.0833 8.66667V4.66667C12.0833 3.19391 10.8894 2 9.41667 2H5.41667ZM4.08333 4.66667C4.08333 3.93029 4.68029 3.33333 5.41667 3.33333H9.41667C10.153 3.33333 10.75 3.93029 10.75 4.66667V8.66667C10.75 9.40303 10.153 10 9.41667 10H5.41667C4.68029 10 4.08333 9.40303 4.08333 8.66667V4.66667Z" fill="#8D5845"/>
<path fill-rule="evenodd" clip-rule="evenodd" d="M18.7334 2.51885C18.6644 2.21536 18.3946 2 18.0833 2C17.7721 2 17.5023 2.21536 17.4333 2.51885L17.0644 4.14098C16.8938 4.89127 16.3079 5.47713 15.5576 5.64773L13.9355 6.0166C13.632 6.0856 13.4167 6.35543 13.4167 6.66667C13.4167 6.9779 13.632 7.24773 13.9355 7.31673L15.5576 7.6856C16.3079 7.8562 16.8938 8.44207 17.0644 9.19237L17.4333 10.8145C17.5023 11.118 17.7721 11.3333 18.0833 11.3333C18.3946 11.3333 18.6644 11.118 18.7334 10.8145L19.1023 9.19237C19.2729 8.44207 19.8587 7.8562 20.609 7.6856L22.2312 7.31673C22.5346 7.24773 22.75 6.9779 22.75 6.66667C22.75 6.35543 22.5346 6.0856 22.2312 6.0166L20.609 5.64773C19.8587 5.47713 19.2729 4.89127 19.1023 4.14098L18.7334 2.51885ZM16.6295 6.66667C17.2547 6.34757 17.7642 5.83807 18.0833 5.2128C18.4024 5.83807 18.9119 6.34757 19.5372 6.66667C18.9119 6.98577 18.4024 7.49527 18.0833 8.12053C17.7642 7.49527 17.2547 6.98577 16.6295 6.66667Z" fill="#8D5845"/>
<path fill-rule="evenodd" clip-rule="evenodd" d="M2.75 15.3334C2.75 13.8606 3.94391 12.6667 5.41667 12.6667H9.41667C10.8894 12.6667 12.0833 13.8606 12.0833 15.3334V19.3334C12.0833 20.8061 10.8894 22 9.41667 22H5.41667C3.94391 22 2.75 20.8061 2.75 19.3334V15.3334ZM5.41667 14C4.68029 14 4.08333 14.597 4.08333 15.3334V19.3334C4.08333 20.0697 4.68029 20.6667 5.41667 20.6667H9.41667C10.153 20.6667 10.75 20.0697 10.75 19.3334V15.3334C10.75 14.597 10.153 14 9.41667 14H5.41667Z" fill="#8D5845"/>
<path fill-rule="evenodd" clip-rule="evenodd" d="M16.0833 12.6667C14.6106 12.6667 13.4167 13.8606 13.4167 15.3334V19.3334C13.4167 20.8061 14.6106 22 16.0833 22H20.0833C21.5561 22 22.75 20.8061 22.75 19.3334V15.3334C22.75 13.8606 21.5561 12.6667 20.0833 12.6667H16.0833ZM14.75 15.3334C14.75 14.597 15.347 14 16.0833 14H20.0833C20.8197 14 21.4167 14.597 21.4167 15.3334V19.3334C21.4167 20.0697 20.8197 20.6667 20.0833 20.6667H16.0833C15.347 20.6667 14.75 20.0697 14.75 19.3334V15.3334Z" fill="#8D5845"/>
</svg>
