<svg width="37" height="31" viewBox="0 0 37 31" fill="none" xmlns="http://www.w3.org/2000/svg">
<path d="M36.5416 9L36.984 6.41905C37.0834 5.83968 36.7089 5.28607 36.1493 5.18455L7.63338 0.015593C7.0774 -0.085314 6.54035 0.315247 6.44364 0.878057L6 3.46391L36.5416 9Z" fill="white"/>
<path d="M7.6967 21H3.3033C3.13619 21 3 21.1158 3 21.2583V22.7417C3 22.8842 3.13619 23 3.3033 23H7.6967C7.86381 23 8 22.8842 8 22.7417V21.2583C8 21.1158 7.86381 21 7.6967 21Z" fill="white"/>
<path d="M30.0371 13H0.962886C0.432053 13 0 13.4391 0 13.9788V30.0215C0 30.5612 0.432053 31 0.962886 31H30.0371C30.5679 31 31 30.5609 31 30.0215V13.9788C31 13.4391 30.5679 13 30.0371 13ZM6.82697 28.3915H3.13606C2.78147 28.3915 2.49414 28.0992 2.49414 27.739C2.49414 27.3787 2.78147 27.0864 3.13606 27.0864H6.82697C7.18156 27.0864 7.4689 27.3787 7.4689 27.739C7.4689 28.0996 7.18156 28.3915 6.82697 28.3915ZM3.83593 25.0068C2.95111 25.0068 2.23112 24.2752 2.23112 23.3759V21.502C2.23112 20.6027 2.95111 19.871 3.83593 19.871H8.48522C9.37005 19.871 10.09 20.6027 10.09 21.502V23.3759C10.09 24.2752 9.37005 25.0068 8.48522 25.0068H3.83593ZM13.8392 28.3915H10.1483C9.79369 28.3915 9.50636 28.0992 9.50636 27.739C9.50636 27.3787 9.79369 27.0864 10.1483 27.0864H13.8392C14.1938 27.0864 14.4811 27.3787 14.4811 27.739C14.4811 28.0996 14.1938 28.3915 13.8392 28.3915ZM20.8514 28.3915H17.1605C16.8059 28.3915 16.5186 28.0992 16.5186 27.739C16.5186 27.3787 16.8059 27.0864 17.1605 27.0864H20.8514C21.206 27.0864 21.4933 27.3787 21.4933 27.739C21.4933 28.0996 21.206 28.3915 20.8514 28.3915ZM27.8639 28.3915H24.1727C23.8181 28.3915 23.5308 28.0992 23.5308 27.739C23.5308 27.3787 23.8181 27.0864 24.1727 27.0864H27.8636C28.2182 27.0864 28.5056 27.3787 28.5056 27.739C28.5059 28.0996 28.2182 28.3915 27.8639 28.3915Z" fill="white"/>
<path d="M5.1455 5L4 11.5614H29.4162C30.6682 11.5614 31.6868 12.5784 31.6868 13.8283V22.8386C32.4752 22.9789 33.7585 23.3302 33.9609 22.1738L36 10.4945L7.02473 5.33484L5.1455 5Z" fill="white"/>
</svg>
