<svg width="14" height="14" viewBox="0 0 14 14" fill="none" xmlns="http://www.w3.org/2000/svg">
<path d="M6.18335 12.2083L5.23335 11.325C4.04446 10.2472 2.98624 9.18875 2.05869 8.14964C1.13069 7.11097 0.666687 5.9972 0.666687 4.80831C0.666687 3.86386 0.986243 3.07209 1.62535 2.43298C2.26402 1.79431 3.05558 1.47498 4.00002 1.47498C4.53335 1.47498 5.06402 1.59986 5.59202 1.84964C6.11958 2.09986 6.58891 2.50275 7.00002 3.05831C7.41113 2.50275 7.88069 2.09986 8.40869 1.84964C8.93624 1.59986 9.46669 1.47498 10 1.47498C10.9445 1.47498 11.736 1.79431 12.3747 2.43298C13.0138 3.07209 13.3334 3.86386 13.3334 4.80831C13.3334 6.00831 12.8611 7.1332 11.9167 8.18297C10.9722 9.2332 9.91669 10.2861 8.75002 11.3416L7.81669 12.1916C7.58335 12.4139 7.31113 12.525 7.00002 12.525C6.68891 12.525 6.41669 12.4194 6.18335 12.2083Z" stroke="#B4B4B4"/>
</svg>
