<svg width="14" height="12" viewBox="0 0 14 12" fill="none" xmlns="http://www.w3.org/2000/svg">
<path d="M6.18335 11.2083L5.23335 10.325C4.04446 9.2472 2.98624 8.18875 2.05869 7.14964C1.13069 6.11097 0.666687 4.9972 0.666687 3.80831C0.666687 2.86386 0.986243 2.07209 1.62535 1.43298C2.26402 0.794309 3.05558 0.474976 4.00002 0.474976C4.53335 0.474976 5.06402 0.599864 5.59202 0.849642C6.11958 1.09986 6.58891 1.50275 7.00002 2.05831C7.41113 1.50275 7.88069 1.09986 8.40869 0.849642C8.93624 0.599864 9.46669 0.474976 10 0.474976C10.9445 0.474976 11.736 0.794309 12.3747 1.43298C13.0138 2.07209 13.3334 2.86386 13.3334 3.80831C13.3334 5.00831 12.8611 6.1332 11.9167 7.18297C10.9722 8.2332 9.91669 9.28609 8.75002 10.3416L7.81669 11.1916C7.58335 11.4139 7.31113 11.525 7.00002 11.525C6.68891 11.525 6.41669 11.4194 6.18335 11.2083Z" fill="#643A2E"/>
</svg>
