<svg width="24" height="24" viewBox="0 0 24 24" fill="none" xmlns="http://www.w3.org/2000/svg">
<path d="M9.75 16.9412C9.50148 16.9412 9.3 17.1427 9.3 17.3912C9.3 17.6397 9.50148 17.8412 9.75 17.8412H14.25C14.4985 17.8412 14.7 17.6397 14.7 17.3912C14.7 17.1427 14.4985 16.9412 14.25 16.9412H9.75Z" fill="#9F9F9F" stroke="#9F9F9F" stroke-width="0.8"/>
<path fill-rule="evenodd" clip-rule="evenodd" d="M13.9519 3.5088C12.8075 2.6053 11.1925 2.6053 10.0481 3.5088L4.19812 8.12722C3.44146 8.72458 3 9.63555 3 10.5996V17.8412C3 19.5809 4.4103 20.9912 6.15 20.9912H17.85C19.5897 20.9912 21 19.5809 21 17.8412V10.5996C21 9.63555 20.5585 8.72458 19.8019 8.12722L13.9519 3.5088ZM10.6058 4.21519C11.4233 3.56983 12.5767 3.56983 13.3942 4.21519L19.2442 8.83361C19.7846 9.2603 20.1 9.91099 20.1 10.5996V17.8412C20.1 19.0838 19.0926 20.0912 17.85 20.0912H6.15C4.90736 20.0912 3.9 19.0838 3.9 17.8412V10.5996C3.9 9.91099 4.21532 9.2603 4.7558 8.83361L10.6058 4.21519Z" fill="#9F9F9F" stroke="#9F9F9F" stroke-width="0.8"/>
</svg>
