<svg width="20" height="22" viewBox="0 0 20 22" fill="none" xmlns="http://www.w3.org/2000/svg">
<path fill-rule="evenodd" clip-rule="evenodd" d="M6.75178 4.29961C6.05825 5.09029 5.66667 6.23664 5.66667 7.6V9.33333C5.66667 10.1939 5.27938 10.9088 4.86882 11.4535C4.49335 11.9517 4.02576 12.399 3.65857 12.7502C3.62774 12.7797 3.59761 12.8085 3.56831 12.8366C3.22481 13.1662 3 13.6136 3 14.1333C3 14.6585 3.39364 15 3.77778 15H16.2222C16.6064 15 17 14.6585 17 14.1333C17 13.6136 16.7752 13.1662 16.4317 12.8366C16.4024 12.8085 16.3723 12.7797 16.3414 12.7502C15.9742 12.399 15.5066 11.9517 15.1312 11.4535C14.7206 10.9088 14.3333 10.1939 14.3333 9.33333V7.6C14.3333 6.23664 13.9417 5.09029 13.2482 4.29962C12.5713 3.52782 11.5251 3 10 3C8.47494 3 7.42875 3.52782 6.75178 4.29961ZM5.24822 2.98079C6.34903 1.72578 7.9695 1 10 1C12.0305 1 13.651 1.72578 14.7518 2.98079C15.836 4.21692 16.3333 5.87057 16.3333 7.6V9.33333C16.3333 9.57737 16.4428 9.87094 16.7283 10.2498C17.002 10.6129 17.3573 10.9534 17.7498 11.3296C17.7718 11.3508 17.794 11.372 17.8163 11.3934C18.5 12.0494 19 12.9996 19 14.1333C19 15.67 17.8018 17 16.2222 17H3.77778C2.19824 17 1 15.67 1 14.1333C1 12.9996 1.49997 12.0494 2.18372 11.3934C2.206 11.372 2.22817 11.3508 2.25022 11.3296C2.6427 10.9534 2.99798 10.6129 3.27166 10.2498C3.55716 9.87094 3.66667 9.57737 3.66667 9.33333V7.6C3.66667 5.87057 4.16397 4.21692 5.24822 2.98079Z" fill="#353535" stroke="white" stroke-width="0.5"/>
<path fill-rule="evenodd" clip-rule="evenodd" d="M7.44301 18.1695C7.9017 17.8619 8.52291 17.9844 8.83051 18.443C8.9299 18.5912 9.0843 18.731 9.29191 18.8345C9.49975 18.938 9.74442 18.9965 9.99998 18.9965C10.2555 18.9965 10.5002 18.938 10.7081 18.8345C10.9157 18.731 11.0701 18.5912 11.1694 18.443C11.4771 17.9844 12.0983 17.8619 12.557 18.1695C13.0156 18.4771 13.1381 19.0983 12.8305 19.557C12.5234 20.0149 12.0943 20.3783 11.5999 20.6246C11.1058 20.8708 10.5545 20.9965 9.99998 20.9965C9.44542 20.9965 8.89418 20.8708 8.40002 20.6246C7.90562 20.3783 7.47656 20.0149 7.16945 19.557C6.86184 19.0983 6.98432 18.4771 7.44301 18.1695Z" fill="#353535" stroke="white" stroke-width="0.5" stroke-linecap="round" stroke-linejoin="round"/>
</svg>
