<svg width="20" height="20" viewBox="0 0 20 20" fill="none" xmlns="http://www.w3.org/2000/svg">
<path d="M16.4583 4.1665C16.2925 4.16646 16.1336 4.1006 16.0164 3.9834C15.8992 3.8662 15.8333 3.70725 15.8333 3.5415V2.2915C15.8333 2.12574 15.8991 1.96677 16.0163 1.84956C16.1335 1.73235 16.2925 1.6665 16.4583 1.6665C16.624 1.6665 16.783 1.73235 16.9002 1.84956C17.0174 1.96677 17.0833 2.12574 17.0833 2.2915V3.5415C17.0832 3.70725 17.0173 3.8662 16.9001 3.9834C16.7829 4.1006 16.624 4.16646 16.4583 4.1665Z" fill="#353535"/>
<path d="M18.9583 5.4165H17.7083C17.5425 5.4165 17.3835 5.35066 17.2663 5.23345C17.1491 5.11624 17.0833 4.95726 17.0833 4.7915C17.0833 4.62574 17.1491 4.46677 17.2663 4.34956C17.3835 4.23235 17.5425 4.1665 17.7083 4.1665H18.9583C19.124 4.1665 19.283 4.23235 19.4002 4.34956C19.5174 4.46677 19.5833 4.62574 19.5833 4.7915C19.5833 4.95726 19.5174 5.11624 19.4002 5.23345C19.283 5.35066 19.124 5.4165 18.9583 5.4165Z" fill="#353535"/>
<path d="M16.4583 7.9165C16.2925 7.91646 16.1336 7.8506 16.0164 7.7334C15.8992 7.6162 15.8333 7.45725 15.8333 7.2915V6.0415C15.8333 5.87574 15.8991 5.71677 16.0163 5.59956C16.1335 5.48235 16.2925 5.4165 16.4583 5.4165C16.624 5.4165 16.783 5.48235 16.9002 5.59956C17.0174 5.71677 17.0833 5.87574 17.0833 6.0415V7.2915C17.0832 7.45725 17.0173 7.6162 16.9001 7.7334C16.7829 7.8506 16.624 7.91646 16.4583 7.9165Z" fill="#353535"/>
<path d="M15.2083 5.4165H13.9583C13.7925 5.4165 13.6335 5.35066 13.5163 5.23345C13.3991 5.11624 13.3333 4.95726 13.3333 4.7915C13.3333 4.62574 13.3991 4.46677 13.5163 4.34956C13.6335 4.23235 13.7925 4.1665 13.9583 4.1665H15.2083C15.374 4.1665 15.533 4.23235 15.6502 4.34956C15.7674 4.46677 15.8333 4.62574 15.8333 4.7915C15.8333 4.95726 15.7674 5.11624 15.6502 5.23345C15.533 5.35066 15.374 5.4165 15.2083 5.4165Z" fill="#353535"/>
<path d="M8.31259 18.125H2.29127C2.0602 18.125 1.83244 18.07 1.62676 17.9647C1.42109 17.8594 1.2434 17.7066 1.10832 17.5192C0.97325 17.3317 0.884667 17.1148 0.849875 16.8863C0.815084 16.6579 0.835079 16.4244 0.908214 16.2052L2.01905 12.8719C2.11561 12.5814 2.30125 12.3287 2.54961 12.1498C2.79796 11.9708 3.0964 11.8747 3.40251 11.875H7.20135C7.50746 11.8747 7.80589 11.9708 8.05425 12.1498C8.3026 12.3288 8.48825 12.5814 8.58481 12.8719L9.69564 16.2052C9.76877 16.4244 9.78877 16.6579 9.75398 16.8863C9.71919 17.1148 9.6306 17.3317 9.49553 17.5192C9.36046 17.7066 9.18277 17.8593 8.9771 17.9647C8.77142 18.07 8.54366 18.125 8.31259 18.125ZM3.40251 13.125C3.35876 13.1249 3.31608 13.1386 3.28057 13.1642C3.24507 13.1898 3.21854 13.2259 3.20476 13.2674L2.09393 16.6008C2.08341 16.632 2.08049 16.6654 2.08541 16.698C2.09033 16.7307 2.10296 16.7617 2.12225 16.7885C2.14153 16.8153 2.16692 16.8371 2.19632 16.8522C2.22571 16.8672 2.25826 16.875 2.29128 16.875H8.3126C8.34561 16.875 8.37817 16.8672 8.40756 16.8522C8.43695 16.8371 8.46235 16.8153 8.48163 16.7885C8.50092 16.7617 8.51354 16.7307 8.51847 16.698C8.52339 16.6654 8.52047 16.632 8.50995 16.6008L7.39911 13.2674C7.38534 13.2259 7.35881 13.1898 7.3233 13.1642C7.2878 13.1386 7.24512 13.1249 7.20136 13.125H3.40251Z" fill="#353535"/>
<path d="M17.7809 18.125H11.7604C11.5293 18.125 11.3015 18.0701 11.0958 17.9648C10.8901 17.8595 10.7123 17.7068 10.5772 17.5193C10.4421 17.3318 10.3535 17.1149 10.3186 16.8864C10.2838 16.658 10.3038 16.4245 10.377 16.2052L11.4878 12.8719C11.5844 12.5814 11.7701 12.3288 12.0184 12.1498C12.2667 11.9709 12.5652 11.8747 12.8713 11.875H16.6701C16.9763 11.8747 17.2748 11.971 17.5232 12.1501C17.7716 12.3292 17.9571 12.5821 18.0536 12.8727L19.1652 16.2052C19.2381 16.4245 19.2578 16.658 19.2228 16.8864C19.1878 17.1148 19.0991 17.3316 18.964 17.5191C18.8288 17.7065 18.6511 17.8592 18.4454 17.9645C18.2398 18.0699 18.012 18.1249 17.7809 18.125ZM12.8713 13.125C12.8277 13.1248 12.7852 13.1385 12.7499 13.1639C12.7145 13.1893 12.6881 13.2253 12.6743 13.2666L11.5627 16.6008C11.5518 16.6319 11.5486 16.6653 11.5536 16.6979C11.5586 16.7305 11.5715 16.7614 11.5911 16.7879C11.6102 16.8151 11.6356 16.8372 11.6651 16.8523C11.6945 16.8675 11.7273 16.8753 11.7604 16.875H17.7809C17.8141 16.8753 17.8468 16.8675 17.8763 16.8523C17.9058 16.8372 17.9311 16.8151 17.9502 16.7879C17.9699 16.7614 17.9828 16.7305 17.9877 16.6979C17.9927 16.6653 17.9896 16.6319 17.9787 16.6008L16.867 13.2674C16.8535 13.2259 16.8271 13.1898 16.7917 13.1642C16.7563 13.1386 16.7137 13.1249 16.6701 13.125L12.8713 13.125Z" fill="#353535"/>
<path d="M12.4789 11.458H6.45802C6.22694 11.458 5.99918 11.403 5.79351 11.2977C5.58784 11.1924 5.41014 11.0397 5.27507 10.8522C5.14 10.6647 5.05141 10.4478 5.01662 10.2193C4.98183 9.99089 5.00183 9.75745 5.07496 9.53825L6.1858 6.20492C6.28236 5.91443 6.468 5.66176 6.71636 5.48279C6.96471 5.30383 7.26315 5.20768 7.56926 5.20801H11.3681C11.6743 5.20774 11.9728 5.30401 12.2212 5.48312C12.4696 5.66224 12.6551 5.91509 12.7516 6.20573L13.8632 9.53823C13.9361 9.75753 13.9558 9.99098 13.9208 10.2194C13.8858 10.4478 13.7971 10.6647 13.662 10.8521C13.5268 11.0395 13.3491 11.1922 13.1434 11.2975C12.9377 11.4029 12.71 11.4579 12.4789 11.458ZM7.56926 6.45801C7.5255 6.45791 7.48283 6.47162 7.44732 6.49719C7.41181 6.52276 7.38528 6.55889 7.37151 6.60043L6.26068 9.93376C6.25016 9.96506 6.24724 9.99841 6.25216 10.0311C6.25708 10.0637 6.26971 10.0947 6.289 10.1215C6.30828 10.1483 6.33367 10.1701 6.36307 10.1852C6.39246 10.2002 6.42501 10.208 6.45803 10.208H12.4789C12.5121 10.2083 12.5448 10.2005 12.5743 10.1853C12.6038 10.1702 12.6291 10.1481 12.6482 10.1209C12.6679 10.0944 12.6808 10.0635 12.6857 10.0309C12.6907 9.99826 12.6876 9.96491 12.6767 9.93376L11.565 6.60043C11.5515 6.55891 11.5251 6.52276 11.4897 6.49717C11.4544 6.47158 11.4118 6.45787 11.3681 6.45801H7.56926Z" fill="#353535"/>
</svg>
