<svg width="20" height="20" viewBox="0 0 20 20" fill="none" xmlns="http://www.w3.org/2000/svg">
<path d="M16.5938 17.5312H3.40625C2.8885 17.5312 2.46875 17.1115 2.46875 16.5937V3.40625C2.46875 2.88847 2.8885 2.46875 3.40625 2.46875H16.5938C17.1115 2.46875 17.5313 2.88847 17.5313 3.40625V16.5937C17.5313 17.1115 17.1115 17.5312 16.5938 17.5312Z" stroke="#353535" stroke-width="1.2" stroke-miterlimit="10" stroke-linecap="round" stroke-linejoin="round"/>
<path d="M10 2.46875V17.5312" stroke="#353535" stroke-width="1.2" stroke-miterlimit="10" stroke-linecap="round" stroke-linejoin="round"/>
<path d="M2.46875 10H17.5313" stroke="#353535" stroke-width="1.2" stroke-miterlimit="10" stroke-linecap="round" stroke-linejoin="round"/>
<path d="M6.25 4.84375V7.65625" stroke="#353535" stroke-width="1.2" stroke-miterlimit="10" stroke-linecap="round" stroke-linejoin="round"/>
<path d="M4.84375 6.25H7.65625" stroke="#353535" stroke-width="1.2" stroke-miterlimit="10" stroke-linecap="round" stroke-linejoin="round"/>
<path d="M5.25562 12.7554L7.24437 14.7441" stroke="#353535" stroke-width="1.2" stroke-miterlimit="10" stroke-linecap="round" stroke-linejoin="round"/>
<path d="M5.25562 14.7441L7.24437 12.7554" stroke="#353535" stroke-width="1.2" stroke-miterlimit="10" stroke-linecap="round" stroke-linejoin="round"/>
<path d="M12.3438 12.8125H15.1563" stroke="#353535" stroke-width="1.2" stroke-miterlimit="10" stroke-linecap="round" stroke-linejoin="round"/>
<path d="M12.3438 14.6875H15.1563" stroke="#353535" stroke-width="1.2" stroke-miterlimit="10" stroke-linecap="round" stroke-linejoin="round"/>
<path d="M12.3438 6.25H15.1563" stroke="#353535" stroke-width="1.2" stroke-miterlimit="10" stroke-linecap="round" stroke-linejoin="round"/>
</svg>
