<svg width="20" height="20" viewBox="0 0 20 20" fill="none" xmlns="http://www.w3.org/2000/svg">
<mask id="mask0_356_328" style="mask-type:alpha" maskUnits="userSpaceOnUse" x="0" y="0" width="20" height="20">
<rect width="20" height="20" fill="#D9D9D9"/>
</mask>
<g mask="url(#mask0_356_328)">
<path d="M9.09737 16.6561L8.04737 15.6968C6.73333 14.5264 5.56372 13.377 4.53853 12.2485C3.51284 11.1205 3 9.91101 3 8.61991C3 7.59427 3.35319 6.73442 4.05958 6.04036C4.76547 5.34679 5.64035 5 6.68421 5C7.27368 5 7.86021 5.13563 8.44379 5.40688C9.02688 5.67861 9.54561 6.11614 10 6.71946C10.4544 6.11614 10.9734 5.67861 11.5569 5.40688C12.14 5.13563 12.7263 5 13.3158 5C14.3596 5 15.2345 5.34679 15.9404 6.04036C16.6468 6.73442 17 7.59427 17 8.61991C17 9.92308 16.4781 11.1447 15.4342 12.2847C14.3904 13.4252 13.2237 14.5686 11.9342 15.7149L10.9026 16.638C10.6447 16.8793 10.3439 17 10 17C9.65614 17 9.35526 16.8854 9.09737 16.6561Z" stroke="#353535" stroke-width="1.3"/>
</g>
</svg>
