<svg width="25" height="24" viewBox="0 0 25 24" fill="none" xmlns="http://www.w3.org/2000/svg">
<path d="M20 5C19.8011 4.99995 19.6104 4.92091 19.4697 4.78027C19.3291 4.63963 19.2501 4.4489 19.25 4.25V2.75C19.25 2.55109 19.329 2.36032 19.4697 2.21967C19.6103 2.07902 19.8011 2 20 2C20.1989 2 20.3897 2.07902 20.5303 2.21967C20.671 2.36032 20.75 2.55109 20.75 2.75V4.25C20.75 4.4489 20.6709 4.63963 20.5303 4.78027C20.3896 4.92091 20.1989 4.99995 20 5Z" fill="#9F9F9F" stroke="white" stroke-width="0.2"/>
<path d="M23 6.5H21.5C21.3011 6.5 21.1103 6.42098 20.9697 6.28033C20.829 6.13968 20.75 5.94891 20.75 5.75C20.75 5.55109 20.829 5.36032 20.9697 5.21967C21.1103 5.07902 21.3011 5 21.5 5H23C23.1989 5 23.3897 5.07902 23.5303 5.21967C23.671 5.36032 23.75 5.55109 23.75 5.75C23.75 5.94891 23.671 6.13968 23.5303 6.28033C23.3897 6.42098 23.1989 6.5 23 6.5Z" fill="#9F9F9F" stroke="white" stroke-width="0.2"/>
<path d="M20 9.5C19.8011 9.49995 19.6104 9.42091 19.4697 9.28027C19.3291 9.13963 19.2501 8.9489 19.25 8.75V7.25C19.25 7.05109 19.329 6.86032 19.4697 6.71967C19.6103 6.57902 19.8011 6.5 20 6.5C20.1989 6.5 20.3897 6.57902 20.5303 6.71967C20.671 6.86032 20.75 7.05109 20.75 7.25V8.75C20.75 8.9489 20.6709 9.13963 20.5303 9.28027C20.3896 9.42091 20.1989 9.49995 20 9.5Z" fill="#9F9F9F" stroke="white" stroke-width="0.2"/>
<path d="M18.5 6.5H17C16.8011 6.5 16.6103 6.42098 16.4697 6.28033C16.329 6.13968 16.25 5.94891 16.25 5.75C16.25 5.55109 16.329 5.36032 16.4697 5.21967C16.6103 5.07902 16.8011 5 17 5H18.5C18.6989 5 18.8897 5.07902 19.0303 5.21967C19.171 5.36032 19.25 5.55109 19.25 5.75C19.25 5.94891 19.171 6.13968 19.0303 6.28033C18.8897 6.42098 18.6989 6.5 18.5 6.5Z" fill="#9F9F9F" stroke="white" stroke-width="0.2"/>
<path d="M10.2252 21.75H2.99964C2.72234 21.75 2.44903 21.684 2.20222 21.5576C1.95542 21.4312 1.74218 21.248 1.5801 21.023C1.41801 20.798 1.31171 20.5377 1.26996 20.2636C1.22821 19.9895 1.2522 19.7093 1.33997 19.4463L2.67297 15.4463C2.78884 15.0977 3.01161 14.7945 3.30964 14.5797C3.60767 14.365 3.96579 14.2496 4.33313 14.25H8.89173C9.25906 14.2496 9.61718 14.365 9.91521 14.5797C10.2132 14.7945 10.436 15.0977 10.5519 15.4463L11.8849 19.4463C11.9726 19.7093 11.9966 19.9895 11.9549 20.2636C11.9131 20.5377 11.8068 20.798 11.6447 21.023C11.4827 21.248 11.2694 21.4312 11.0226 21.5576C10.7758 21.684 10.5025 21.75 10.2252 21.75ZM4.33313 15.75C4.28062 15.7499 4.22941 15.7663 4.1868 15.797C4.14419 15.8277 4.11235 15.8711 4.09583 15.9209L2.76283 19.9209C2.7502 19.9585 2.74669 19.9985 2.7526 20.0377C2.75851 20.0768 2.77366 20.114 2.79681 20.1462C2.81995 20.1784 2.85042 20.2046 2.88569 20.2226C2.92096 20.2407 2.96002 20.25 2.99965 20.25H10.2252C10.2648 20.25 10.3039 20.2407 10.3392 20.2226C10.3745 20.2046 10.4049 20.1784 10.4281 20.1462C10.4512 20.114 10.4664 20.0768 10.4723 20.0377C10.4782 19.9985 10.4747 19.9585 10.462 19.9209L9.12905 15.9209C9.11252 15.8711 9.08068 15.8277 9.03807 15.797C8.99546 15.7663 8.94426 15.7499 8.89175 15.75H4.33313Z" fill="#9F9F9F" stroke="white" stroke-width="0.2"/>
<path d="M21.5872 21.75H14.3626C14.0852 21.75 13.8118 21.6842 13.565 21.5578C13.3181 21.4314 13.1048 21.2482 12.9427 21.0232C12.7805 20.7982 12.6742 20.5379 12.6324 20.2637C12.5906 19.9895 12.6146 19.7094 12.7024 19.4463L14.0354 15.4463C14.1513 15.0977 14.3741 14.7946 14.6721 14.5798C14.9701 14.3651 15.3282 14.2497 15.6956 14.25H20.2542C20.6216 14.2497 20.9798 14.3652 21.2779 14.5801C21.5759 14.7951 21.7986 15.0985 21.9143 15.4473L23.2483 19.4463C23.3357 19.7094 23.3594 19.9896 23.3174 20.2637C23.2754 20.5378 23.169 20.798 23.0068 21.0229C22.8446 21.2478 22.6313 21.431 22.3845 21.5574C22.1377 21.6838 21.8644 21.7498 21.5872 21.75ZM15.6956 15.75C15.6433 15.7498 15.5923 15.7661 15.5499 15.7967C15.5074 15.8272 15.4757 15.8703 15.4592 15.9199L14.1252 19.9209C14.1121 19.9583 14.1084 19.9983 14.1144 20.0375C14.1203 20.0766 14.1358 20.1137 14.1594 20.1455C14.1823 20.1781 14.2127 20.2046 14.2481 20.2228C14.2835 20.241 14.3228 20.2504 14.3625 20.25H21.5871C21.6269 20.2504 21.6662 20.241 21.7016 20.2228C21.737 20.2046 21.7674 20.1781 21.7903 20.1455C21.8139 20.1137 21.8294 20.0766 21.8353 20.0375C21.8413 19.9983 21.8376 19.9583 21.8245 19.9209L20.4905 15.9209C20.4742 15.8711 20.4426 15.8277 20.4001 15.797C20.3576 15.7663 20.3065 15.7498 20.2541 15.75L15.6956 15.75Z" fill="#9F9F9F" stroke="white" stroke-width="0.2"/>
<path d="M15.2247 13.75H7.99964C7.72234 13.75 7.44903 13.684 7.20222 13.5576C6.95542 13.4312 6.74218 13.248 6.5801 13.023C6.41801 12.798 6.31171 12.5377 6.26996 12.2636C6.22821 11.9895 6.2522 11.7093 6.33997 11.4463L7.67297 7.44629C7.78884 7.09771 8.01161 6.7945 8.30964 6.57974C8.60767 6.36499 8.96579 6.24961 9.33313 6.25H13.8917C14.2592 6.24968 14.6174 6.3652 14.9154 6.58014C15.2135 6.79508 15.4362 7.0985 15.5519 7.44727L16.8859 11.4463C16.9733 11.7094 16.997 11.9896 16.955 12.2637C16.913 12.5378 16.8065 12.798 16.6444 13.0229C16.4822 13.2478 16.2689 13.431 16.0221 13.5574C15.7753 13.6838 15.502 13.7498 15.2247 13.75ZM9.33313 7.75C9.28062 7.74988 9.22941 7.76633 9.1868 7.79702C9.14419 7.82771 9.11235 7.87106 9.09583 7.9209L7.76283 11.9209C7.7502 11.9585 7.74669 11.9985 7.7526 12.0377C7.75851 12.0768 7.77366 12.114 7.79681 12.1462C7.81995 12.1784 7.85042 12.2046 7.88569 12.2226C7.92096 12.2407 7.96003 12.25 7.99965 12.25H15.2247C15.2645 12.2503 15.3038 12.241 15.3392 12.2228C15.3746 12.2046 15.405 12.1781 15.4279 12.1455C15.4515 12.1137 15.4669 12.0766 15.4729 12.0375C15.4789 11.9983 15.4751 11.9583 15.462 11.9209L14.128 7.9209C14.1118 7.87108 14.0802 7.8277 14.0377 7.79699C13.9952 7.76629 13.9441 7.74983 13.8917 7.75H9.33313Z" fill="#9F9F9F" stroke="white" stroke-width="0.2"/>
</svg>
