<svg width="11" height="10" viewBox="0 0 11 10" fill="none" xmlns="http://www.w3.org/2000/svg">
<g clip-path="url(#clip0_177_746)">
<path d="M8.25966 3.20154C8.19306 3.13681 8.0996 3.10739 8.00816 3.12243C7.91654 3.13741 7.83742 3.19493 7.79492 3.27747C7.64875 3.56144 7.46308 3.82239 7.24464 4.05308C7.26642 3.88644 7.27738 3.7188 7.27738 3.55072C7.27738 3.2282 7.23416 2.8963 7.14886 2.56413C6.86843 1.4731 6.13308 0.550422 5.13142 0.0327073C5.04421 -0.0123512 4.94031 -0.0107692 4.85451 0.0369261C4.76871 0.0846409 4.71251 0.172121 4.70482 0.269973C4.62673 1.26146 4.11603 2.16349 3.30289 2.74536C3.29212 2.75312 3.28144 2.76097 3.27076 2.76878C3.24863 2.78497 3.22777 2.80029 3.20828 2.81314C3.20523 2.81517 3.2022 2.81724 3.19923 2.81937C2.68783 3.18552 2.26585 3.67361 1.97888 4.23101C1.68728 4.79798 1.53943 5.4064 1.53943 6.03931C1.53943 6.36173 1.58265 6.69362 1.66791 7.02585C2.11781 8.77697 3.69367 9.99997 5.50011 9.99997C7.68392 9.99997 9.46056 8.22322 9.46056 6.03931C9.46056 4.96236 9.03408 3.95454 8.25966 3.20154Z" fill="white"/>
</g>
<defs>
<clipPath id="clip0_177_746">
<rect width="10" height="10" fill="white" transform="translate(0.5)"/>
</clipPath>
</defs>
</svg>
