<svg width="46" height="46" viewBox="0 0 46 46" fill="none" xmlns="http://www.w3.org/2000/svg">
<rect width="46" height="46" rx="23" fill="#643A2E"/>
<path d="M30.75 16C30.5511 15.9999 30.3604 15.9209 30.2197 15.7803C30.0791 15.6396 30.0001 15.4489 30 15.25V13.75C30 13.5511 30.079 13.3603 30.2197 13.2197C30.3603 13.079 30.5511 13 30.75 13C30.9489 13 31.1397 13.079 31.2803 13.2197C31.421 13.3603 31.5 13.5511 31.5 13.75V15.25C31.4999 15.4489 31.4209 15.6396 31.2803 15.7803C31.1396 15.9209 30.9489 15.9999 30.75 16Z" fill="white"/>
<path d="M33.75 17.5H32.25C32.0511 17.5 31.8603 17.421 31.7197 17.2803C31.579 17.1397 31.5 16.9489 31.5 16.75C31.5 16.5511 31.579 16.3603 31.7197 16.2197C31.8603 16.079 32.0511 16 32.25 16H33.75C33.9489 16 34.1397 16.079 34.2803 16.2197C34.421 16.3603 34.5 16.5511 34.5 16.75C34.5 16.9489 34.421 17.1397 34.2803 17.2803C34.1397 17.421 33.9489 17.5 33.75 17.5Z" fill="white"/>
<path d="M30.75 20.5C30.5511 20.4999 30.3604 20.4209 30.2197 20.2803C30.0791 20.1396 30.0001 19.9489 30 19.75V18.25C30 18.0511 30.079 17.8603 30.2197 17.7197C30.3603 17.579 30.5511 17.5 30.75 17.5C30.9489 17.5 31.1397 17.579 31.2803 17.7197C31.421 17.8603 31.5 18.0511 31.5 18.25V19.75C31.4999 19.9489 31.4209 20.1396 31.2803 20.2803C31.1396 20.4209 30.9489 20.4999 30.75 20.5Z" fill="white"/>
<path d="M29.25 17.5H27.75C27.5511 17.5 27.3603 17.421 27.2197 17.2803C27.079 17.1397 27 16.9489 27 16.75C27 16.5511 27.079 16.3603 27.2197 16.2197C27.3603 16.079 27.5511 16 27.75 16H29.25C29.4489 16 29.6397 16.079 29.7803 16.2197C29.921 16.3603 30 16.5511 30 16.75C30 16.9489 29.921 17.1397 29.7803 17.2803C29.6397 17.421 29.4489 17.5 29.25 17.5Z" fill="white"/>
<path d="M20.9752 32.75H13.7496C13.4723 32.75 13.199 32.684 12.9522 32.5576C12.7054 32.4312 12.4922 32.248 12.3301 32.023C12.168 31.798 12.0617 31.5377 12.0199 31.2636C11.9782 30.9895 12.0022 30.7093 12.09 30.4463L13.423 26.4463C13.5388 26.0977 13.7616 25.7945 14.0596 25.5797C14.3577 25.365 14.7158 25.2496 15.0831 25.25H19.6417C20.0091 25.2496 20.3672 25.365 20.6652 25.5797C20.9632 25.7945 21.186 26.0977 21.3019 26.4463L22.6349 30.4463C22.7226 30.7093 22.7466 30.9895 22.7049 31.2636C22.6631 31.5377 22.5568 31.798 22.3947 32.023C22.2327 32.248 22.0194 32.4312 21.7726 32.5576C21.5258 32.684 21.2525 32.75 20.9752 32.75ZM15.0831 26.75C15.0306 26.7499 14.9794 26.7663 14.9368 26.797C14.8942 26.8277 14.8623 26.8711 14.8458 26.9209L13.5128 30.9209C13.5002 30.9585 13.4967 30.9985 13.5026 31.0377C13.5085 31.0768 13.5237 31.114 13.5468 31.1462C13.5699 31.1784 13.6004 31.2046 13.6357 31.2226C13.671 31.2407 13.71 31.25 13.7496 31.25H20.9752C21.0148 31.25 21.0539 31.2407 21.0892 31.2226C21.1244 31.2046 21.1549 31.1784 21.1781 31.1462C21.2012 31.114 21.2163 31.0768 21.2223 31.0377C21.2282 30.9985 21.2247 30.9585 21.212 30.9209L19.879 26.9209C19.8625 26.8711 19.8307 26.8277 19.7881 26.797C19.7455 26.7663 19.6942 26.7499 19.6417 26.75H15.0831Z" fill="white"/>
<path d="M32.337 32.75H25.1124C24.8351 32.75 24.5617 32.6842 24.3148 32.5578C24.068 32.4314 23.8547 32.2482 23.6925 32.0232C23.5304 31.7982 23.424 31.5379 23.3823 31.2637C23.3405 30.9895 23.3645 30.7094 23.4523 30.4463L24.7853 26.4463C24.9012 26.0977 25.124 25.7946 25.422 25.5798C25.72 25.3651 26.0781 25.2497 26.4454 25.25H31.004C31.3715 25.2497 31.7297 25.3652 32.0277 25.5801C32.3258 25.7951 32.5485 26.0985 32.6642 26.4473L33.9982 30.4463C34.0856 30.7094 34.1093 30.9896 34.0673 31.2637C34.0253 31.5378 33.9188 31.798 33.7567 32.0229C33.5945 32.2478 33.3812 32.431 33.1344 32.5574C32.8876 32.6838 32.6143 32.7498 32.337 32.75ZM26.4454 26.75C26.3932 26.7498 26.3422 26.7661 26.2997 26.7967C26.2573 26.8272 26.2256 26.8703 26.2091 26.9199L24.8751 30.9209C24.862 30.9583 24.8583 30.9983 24.8642 31.0375C24.8702 31.0766 24.8857 31.1137 24.9093 31.1455C24.9321 31.1781 24.9626 31.2046 24.998 31.2228C25.0333 31.241 25.0726 31.2504 25.1124 31.25H32.337C32.3768 31.2504 32.4161 31.241 32.4515 31.2228C32.4868 31.2046 32.5173 31.1781 32.5401 31.1455C32.5638 31.1137 32.5792 31.0766 32.5852 31.0375C32.5911 30.9983 32.5874 30.9583 32.5743 30.9209L31.2403 26.9209C31.2241 26.8711 31.1924 26.8277 31.15 26.797C31.1075 26.7663 31.0564 26.7498 31.004 26.75L26.4454 26.75Z" fill="white"/>
<path d="M25.9747 24.75H18.7496C18.4723 24.75 18.199 24.684 17.9522 24.5576C17.7054 24.4312 17.4922 24.248 17.3301 24.023C17.168 23.798 17.0617 23.5377 17.0199 23.2636C16.9782 22.9895 17.0022 22.7093 17.09 22.4463L18.423 18.4463C18.5388 18.0977 18.7616 17.7945 19.0596 17.5797C19.3577 17.365 19.7158 17.2496 20.0831 17.25H24.6417C25.0092 17.2497 25.3674 17.3652 25.6654 17.5801C25.9635 17.7951 26.1862 18.0985 26.3019 18.4473L27.6359 22.4463C27.7233 22.7094 27.747 22.9896 27.705 23.2637C27.663 23.5378 27.5565 23.798 27.3944 24.0229C27.2322 24.2478 27.0189 24.431 26.7721 24.5574C26.5253 24.6838 26.252 24.7498 25.9747 24.75ZM20.0831 18.75C20.0306 18.7499 19.9794 18.7663 19.9368 18.797C19.8942 18.8277 19.8623 18.8711 19.8458 18.9209L18.5128 22.9209C18.5002 22.9585 18.4967 22.9985 18.5026 23.0377C18.5085 23.0768 18.5237 23.114 18.5468 23.1462C18.5699 23.1784 18.6004 23.2046 18.6357 23.2226C18.671 23.2407 18.71 23.25 18.7496 23.25H25.9747C26.0145 23.2503 26.0538 23.241 26.0892 23.2228C26.1245 23.2046 26.155 23.1781 26.1778 23.1455C26.2015 23.1137 26.2169 23.0766 26.2229 23.0375C26.2289 22.9983 26.2251 22.9583 26.212 22.9209L24.878 18.9209C24.8618 18.8711 24.8301 18.8277 24.7877 18.797C24.7452 18.7663 24.6941 18.7498 24.6417 18.75H20.0831Z" fill="white"/>
</svg>
