<svg width="38" height="38" viewBox="0 0 38 38" fill="none" xmlns="http://www.w3.org/2000/svg">
<path d="M25.3955 13.3199C18.737 13.3199 13.3198 18.737 13.3198 25.3956C13.3198 32.0541 18.737 37.4713 25.3955 37.4713C32.0541 37.4713 37.4712 32.0541 37.4712 25.3956C37.4712 18.737 32.0541 13.3199 25.3955 13.3199ZM25.3955 24.2978C27.2116 24.2978 28.6889 25.7751 28.6889 27.5912C28.6889 29.0205 27.7684 30.2276 26.4933 30.6823V33.0801H24.2977V30.6823C23.0227 30.2276 22.1021 29.0205 22.1021 27.5912H24.2977C24.2977 28.1968 24.7898 28.689 25.3955 28.689C26.0012 28.689 26.4933 28.1968 26.4933 27.5912C26.4933 26.9855 26.0012 26.4934 25.3955 26.4934C23.5795 26.4934 22.1021 25.016 22.1021 23.2C22.1021 21.7707 23.0227 20.5635 24.2977 20.1088V17.711H26.4933V20.1088C27.7684 20.5635 28.6889 21.7707 28.6889 23.2H26.4933C26.4933 22.5943 26.0012 22.1022 25.3955 22.1022C24.7898 22.1022 24.2977 22.5943 24.2977 23.2C24.2977 23.8057 24.7898 24.2978 25.3955 24.2978Z" fill="white"/>
<path d="M12.2221 13.3199C18.9932 13.3199 24.2978 10.4264 24.2978 6.73311C24.2978 3.03985 18.9932 0 12.2221 0C5.4509 0 0 3.03985 0 6.73311C0 10.4264 5.4509 13.3199 12.2221 13.3199Z" fill="white"/>
<path d="M0 24.7046V26.4933C0 30.1866 5.4509 33.0801 12.2221 33.0801C12.6061 33.0801 12.9783 33.0447 13.3564 33.0262C12.5144 31.7022 11.8864 30.2331 11.5166 28.6625C6.62004 28.5273 2.36845 27.0227 0 24.7046Z" fill="white"/>
<path d="M11.177 26.4374C11.1519 26.0921 11.1243 25.7472 11.1243 25.3955C11.1243 24.2511 11.2742 23.1435 11.5299 22.0763C6.62736 21.9435 2.37057 20.4381 0 18.1179V19.9066C0 23.4039 4.92264 26.1524 11.177 26.4374Z" fill="white"/>
<path d="M12.2221 19.9066C12.2232 19.9066 12.2242 19.9065 12.2254 19.9065C12.9495 18.1761 14.002 16.6162 15.309 15.3092C14.3175 15.4345 13.2929 15.5154 12.2221 15.5154C7.00998 15.5154 2.48291 13.9612 0 11.5311V13.3199C0 17.0131 5.4509 19.9066 12.2221 19.9066Z" fill="white"/>
</svg>
